<?xml version="1.0" standalone="no"?>
<!DOCTYPE svg PUBLIC "-//W3C//DTD SVG 20010904//EN"
 "http://www.w3.org/TR/2001/REC-SVG-20010904/DTD/svg10.dtd">
<svg version="1.0" xmlns="http://www.w3.org/2000/svg"
 width="24" height="24" viewBox="0 0 95.000000 95.000000"
 preserveAspectRatio="xMidYMid meet">

<g transform="translate(-25.00000,130.00000) scale(0.12000,-0.12000)"
fill="#ffffff" stroke="none">
<path d="M373 970 c-60 -36 -63 -53 -63 -322 0 -353 -15 -338 340 -338 267 0
284 3 320 63 18 29 20 52 20 277 0 355 15 340 -342 340 -223 0 -246 -2 -275
-20z m553 -65 c29 -44 -40 -99 -82 -64 -17 14 -18 61 -2 77 18 18 69 10 84
-13z m-178 -54 c80 -41 122 -111 122 -201 0 -130 -90 -220 -220 -220 -128 0
-221 92 -221 219 -1 89 44 161 126 204 43 23 146 22 193 -2z"/>
<path d="M591 762 c-38 -20 -71 -73 -71 -112 0 -39 33 -92 71 -112 43 -23 75
-23 118 0 38 20 71 73 71 112 0 14 -8 41 -18 59 -20 38 -73 71 -112 71 -14 0
-41 -8 -59 -18z"/>
</g>
</svg>
